<?xml version="1.0" encoding="utf-8"?>
<!-- Generator: Adobe Illustrator 27.0.0, SVG Export Plug-In . SVG Version: 6.00 Build 0)  -->
<svg version="1.1" id="Layer_1" xmlns="http://www.w3.org/2000/svg" xmlns:xlink="http://www.w3.org/1999/xlink" x="0px" y="0px"
	 viewBox="0 0 1200 1200" style="enable-background:new 0 0 1200 1200;" xml:space="preserve">
<path d="M1109.9,719.2c-35.8,12.7-75.3-0.9-93-34.1c-4-7.4-6.4-15.4-7.1-23.4c-1.5,1-2.9,1.8-4.5,2.6c-33.7,17.7-75.3,5-93.1-28.7
	c-32.6,17.2-73,5.5-91.4-26c-6.3,13.9-14.4,29-24.1,43.8c-2.5,3.7-5.2,7.5-8,11.4c-2.1,2.9-4.3,5.9-6.7,8.8
	c-4.4,5.8-9.3,11.3-14.5,16.7c-2.1,2.5-4.4,4.8-6.9,7c-3.3,3.3-6.7,6.4-10.4,9.4c-1.5,1.3-3,2.6-4.7,4c-3.1,2.4-6.3,4.9-9.5,7.2
	c-3.7,2.6-7.6,5.1-11.5,7.5c-3.3,1.8-6.6,3.7-10,5.5c-5.2,2.7-10.5,5.1-15.7,7.4c-10.4,4.2-20.9,7.6-31.4,9.9
	c-1.2,0.4-2.7,0.7-4.1,0.7c-67.9,13.8-132-14.6-168.9-71.4c-13.8-21.1-23.7-46-28.9-74.1c-6.9-37.9,0-75.9,19.5-109
	c0.5-1.3,1.3-2.6,2.1-3.6c5.6-9.3,12.2-18,20-26.1c3.8-4.3,7.9-8.4,12.3-12.2c2.8-2.7,5.6-5.1,8.6-7.5c3.5-2.7,6.9-5.3,10.7-8
	c0.2-0.1,0.2-0.1,0.3-0.2c3.3-2.3,6.6-4.4,10-6.5c1.9-1.1,3.5-2.2,5.4-3c4.1-2.4,8.2-4.5,12.4-6.5c3-1.6,5.9-2.9,9-4.1
	c6.8-3.1,13.7-5.7,20.7-7.9c3.5-1.2,7.1-2.3,10.6-3.3c4.5-1.5,9.1-2.5,13.5-3.6c17.4-4.2,34.4-6.4,49.4-7.7
	c-23.3-28.1-20.4-70.1,6.9-94.8c-25.6-28.2-23.3-71.7,4.9-97.3c1.4-1.2,2.5-2.3,4-3.3c-7.2-3.4-13.9-8.4-19.5-14.7
	c-25.2-28-24.4-69.8-0.2-99c0,0,11.1-15,23.7-17.1c-0.8-0.1-1.7-0.3-2.8-0.5c-0.6-0.1-1.4-0.2-2.2-0.4
	c-61.3-7.3-194.4-8.2-344.9,83.1c-0.8,0.6-1.6,1.1-2.7,1.7c-11.4,7-23,14.6-34.5,22.7C56.5,347,0.3,665.7,168.4,905.9
	s486.9,296.4,733,124.1c11.6-8.1,22.7-16.4,33.2-24.7c1-0.7,1.8-1.3,2.5-2c150.7-119.4,187.1-245.5,196.1-295.7
	c0.3-1.7,0.6-3.3,0.9-4.5l-0.1-0.4C1127.8,714,1109.9,719.2,1109.9,719.2z"/>
</svg>
