<?xml version="1.0" encoding="utf-8"?>
<!-- Generator: Adobe Illustrator 27.0.0, SVG Export Plug-In . SVG Version: 6.00 Build 0)  -->
<svg version="1.1" xmlns="http://www.w3.org/2000/svg" xmlns:xlink="http://www.w3.org/1999/xlink" x="0px" y="0px"
	 viewBox="0 0 316 60" style="enable-background:new 0 0 316 60;" xml:space="preserve">
<style type="text/css">
	.st0{fill:#222013;}
	.st1{fill:#B94F43;}
	.st2{fill:#D96A4E;}
	.st3{display:none;}
	.st4{display:inline;}
</style>
<g id="Layer_1">
	<g>
		<path class="st0" d="M0,30C0,14,12.9,1.8,29.6,1.8C36.6,1.9,44,4.9,49.5,9.9l-8.2,10.6c-3.3-3-7.7-5-11.7-5
			c-8.3,0-15.2,6.3-15.2,14.6c0,8.4,7.2,14.5,14.9,14.5c4.5,0,8.6-2.1,12-5.2l8.2,10.9c-5.1,4.7-12,7.9-20.2,7.9
			C14.2,58.1,0,46.9,0,30z"/>
		<path class="st0" d="M97.9,3v53.9H83.6V36.6h-16v20.3H53.3V3h14.3v20.2h16V3H97.9z"/>
		<path class="st0" d="M139.5,50.6h-20.1l-2.7,6.3H101l25-54.5h6.8l25.1,54.5h-15.7L139.5,50.6z M134.9,40.1l-5.5-12.8l-5.5,12.8
			H134.9z"/>
		<path class="st0" d="M189.7,56.9l-14.4-23.4v23.4H161L161,3h20.4c11.6,0,19.9,7.9,19.9,17.5c0,6.7-4,12.3-9.3,14.7l14.4,21.6
			H189.7z M175.2,26.7l5.8,0c3,0,5.8-2.1,5.8-5.4c0-3.3-2.8-5.4-5.8-5.4h-5.8V26.7z"/>
		<path class="st0" d="M244.2,43.5v13.4h-34.9V3h14.3v40.4H244.2z"/>
		<path class="st0" d="M280.1,16.3v7.5h17.1v11.9h-17.1v7.7h20.8v13.4H266V3h34.9v13.3H280.1z"/>
		<path class="st1" d="M292.2,51l5.2-5.1c1.3,2,3.8,3.2,6.6,3.2c1.8,0,3.6-0.7,3.6-2c0-1.7-3.3-3.1-6.5-4.5
			c-4.1-1.8-7.6-4.4-7.6-9.3c0-5.6,5.3-9.6,11.4-9.6c4.9,0,8.8,2.3,10,5.5l-5,4.8c-1-1.7-3.4-2.4-5-2.4c-1.8,0-3,0.9-3,2
			c0,1.5,2.3,2,5.8,3.4c5.1,2.1,8.4,5.2,8.4,10c0,6.2-5.7,10-12.2,10C298.7,56.9,293.8,54.6,292.2,51z"/>
		<path class="st0" d="M248,3h14.3v53.9H248V3z"/>
	</g>
	<g>
		<path class="st2" d="M304.4,20.7c1.3,0,3.6-0.9,3.6-3.4c0-0.7-0.1-1.1-0.3-1.4c-1.8,0-3.6-1.7-3.6-4.1c0-2.5,2.1-4.8,5.1-4.8
			c3.1,0,5.1,2.5,5.1,6.3c0,4.3-2.5,8.8-6.8,8.8C305.6,22.1,304.4,21.2,304.4,20.7z"/>
	</g>
</g>
<g id="Layer_2" class="st3">
	<g class="st4">
		<path class="st1" d="M1.3,9.4h15.5c8.5,0,15.5,6.4,15.5,14.4c0,7.9-6.9,14.6-15.5,14.6h-4.6v12.1H1.3V9.4z M21.8,23.9
			c0-2.5-2.1-4.4-5-4.4h-4.6v8.8l4.6,0C19.7,28.4,21.8,26.4,21.8,23.9z"/>
		<path class="st1" d="M34,30c0-12.3,9.8-21.7,22.5-21.7S79.1,17.7,79.1,30c0,12.2-9.8,21.5-22.6,21.5C43.8,51.5,34,42.2,34,30z
			 M68.1,29.9c0-6.3-5-11.2-11.5-11.2S45,23.6,45,29.9c0,6.3,5,11.2,11.5,11.2S68.1,36.2,68.1,29.9z"/>
		<path class="st1" d="M104.1,50.5l-11-17.8v17.8H82.2L82.1,9.4h15.6c8.9,0,15.2,6,15.2,13.3c0,5.1-3.1,9.4-7.1,11.2l11,16.5H104.1z
			 M93,27.5l4.5,0c2.3,0,4.4-1.6,4.4-4.1c0-2.5-2.1-4.1-4.4-4.1H93V27.5z"/>
		<path class="st1" d="M145.5,19.6h-9.8v30.9h-10.9V19.6h-9.9V9.4h30.6V19.6z"/>
		<path class="st1" d="M160.9,19.6v6.6h13v9.1h-13v15.2h-10.8V9.3h26.6v10.2H160.9z"/>
		<path class="st1" d="M177.6,30c0-12.3,9.8-21.7,22.5-21.7c12.8,0,22.5,9.3,22.5,21.7c0,12.2-9.8,21.5-22.6,21.5
			C187.4,51.5,177.6,42.2,177.6,30z M211.7,29.9c0-6.3-5-11.2-11.5-11.2s-11.5,4.9-11.5,11.2c0,6.3,5,11.2,11.5,11.2
			S211.7,36.2,211.7,29.9z"/>
		<path class="st1" d="M252.4,40.2v10.2h-26.6V9.4h10.9v30.8H252.4z"/>
		<path class="st1" d="M255.8,9.4h10.9v41.1h-10.9V9.4z"/>
		<path class="st1" d="M269.8,30c0-12.3,9.8-21.7,22.5-21.7c12.8,0,22.5,9.3,22.5,21.7c0,12.2-9.8,21.5-22.6,21.5
			C279.5,51.5,269.8,42.2,269.8,30z M303.8,29.9c0-6.3-5-11.2-11.5-11.2c-6.5,0-11.5,4.9-11.5,11.2c0,6.3,5,11.2,11.5,11.2
			C298.8,41.1,303.8,36.2,303.8,29.9z"/>
	</g>
</g>
</svg>
