<?xml version="1.0" encoding="utf-8"?>
<!-- Generator: Adobe Illustrator 27.0.0, SVG Export Plug-In . SVG Version: 6.00 Build 0)  -->
<svg version="1.1" id="Layer_1" xmlns="http://www.w3.org/2000/svg" xmlns:xlink="http://www.w3.org/1999/xlink" x="0px" y="0px"
	 viewBox="0 0 1200 1200" style="enable-background:new 0 0 1200 1200;" xml:space="preserve">
<style type="text/css">
	.st0{fill:#FF671D;}
	.st1{display:none;fill:#FF9015;}
	.st2{fill:#FF9015;}
</style>
<polygon class="st0" points="722.7,396.6 933.6,607.6 804.1,737.2 593.1,526.2 382,737.2 252.5,607.6 463.5,396.6 252.5,185.6 
	382,56 593.1,267 804.1,56 933.6,185.6 "/>
<g>
	<path class="st1" d="M520,922.6h-64.4l-10.3,30.1h-48.1l66-173.4h49.2l66,173.4h-48.1L520,922.6z M508,888.3l-20.2-57.7l-20.2,57.7
		H508z"/>
	<path class="st2" d="M512.4,779.3h-49.2l-60.5,158.9l-63.4-76.8l68.8-82.1h-55.6l-55,71.5v-71.5h-45v173.4h45v-75.2l58.6,75.2h89.1
		l10.3-30.1H520l10.3,30.1h48.1L512.4,779.3z M467.5,888.3l18.8-53.5c0.5-1.4,2.5-1.4,3,0l18.8,53.5H467.5z"/>
	<path class="st2" d="M636.9,779.3v135.2h54v38.2h-99.1V779.3H636.9z"/>
	<path class="st2" d="M752.8,779.3v173.4h-45.1V779.3H752.8z"/>
	<polygon class="st2" points="893.3,866 947,919.7 914,952.7 860.3,899 806.6,952.7 773.6,919.7 827.3,866 773.6,812.3 806.6,779.3 
		860.3,833 914,779.3 947,812.3 	"/>
</g>
<g>
	<path class="st2" d="M473,1043.8h87.7c0,9-0.4,17.2-1.1,24.6c-0.8,7.4-2.3,14.2-4.5,20.5c-3.2,8.9-7.4,16.7-12.9,23.6
		c-5.4,6.8-11.8,12.6-19.1,17.1c-7.3,4.6-15.3,8.1-24,10.5c-8.7,2.4-17.9,3.6-27.5,3.6c-13.2,0-25.3-2.2-36.2-6.5
		c-10.9-4.4-20.3-10.5-28.1-18.4c-7.8-7.9-13.9-17.4-18.3-28.4c-4.4-11.1-6.5-23.3-6.5-36.7c0-13.2,2.1-25.4,6.4-36.4
		c4.3-11,10.4-20.5,18.3-28.3c7.9-7.8,17.4-13.9,28.5-18.3c11.1-4.4,23.5-6.5,37.2-6.5c17.7,0,33.3,3.8,46.7,11.5
		c13.4,7.7,24,19.6,31.8,35.6l-41.9,17.4c-3.9-9.3-9-16-15.2-20.1c-6.2-4.1-13.3-6.1-21.3-6.1c-6.6,0-12.6,1.2-18,3.7
		c-5.4,2.5-10,6-13.9,10.6c-3.8,4.6-6.8,10.1-9,16.6c-2.2,6.5-3.3,13.7-3.3,21.7c0,7.2,0.9,13.9,2.8,20.1c1.9,6.2,4.7,11.5,8.5,16
		c3.8,4.5,8.4,8,14,10.5c5.6,2.5,12,3.7,19.4,3.7c4.4,0,8.6-0.5,12.6-1.5s7.7-2.6,10.9-4.7c3.2-2.2,5.9-5,8-8.5
		c2.1-3.5,3.5-7.7,4.3-12.6H473V1043.8z"/>
	<path class="st2" d="M620.4,968.9V1139h-44.2V968.9H620.4z"/>
	<path class="st2" d="M640.5,1139V968.9h42.4l78.4,104v-104h42.2V1139h-42.2l-78.4-104v104H640.5z"/>
</g>
</svg>
